<svg id="Layer_1" data-name="Layer 1" xmlns="http://www.w3.org/2000/svg" viewBox="0 0 391.56 95.8"><defs><style>.cls-1{fill:#0065a1;}.cls-2{fill:#231f20;}.cls-3{fill:#99daea;}</style></defs><title>Artboard 1</title><path class="cls-1" d="M115.43,85.38c-1.43-.49-2.13-1.21-2.13-2.21a1.86,1.86,0,0,1,2.11-2,3.14,3.14,0,0,1,2.14.75,3.12,3.12,0,0,0,.36.25.72.72,0,0,0,.36.1.42.42,0,0,0,.44-.44V81.4a.93.93,0,0,0-.58-.84l0,0a5,5,0,0,0-2.81-.71,3.35,3.35,0,0,0-3.57,3.34c0,1.71,1.06,2.89,3.24,3.61,1.9.62,2.54,1.25,2.54,2.52a2.08,2.08,0,0,1-2.21,2.17,5.14,5.14,0,0,1-2.91-.91l-.11-.07a.58.58,0,0,0-.37-.11.44.44,0,0,0-.48.46v.41a1,1,0,0,0,.6.84,6.74,6.74,0,0,0,3.25.75,3.55,3.55,0,0,0,3.83-3.57C119.08,86.63,117.23,86,115.43,85.38Zm16.26,5.87h-5V86.71h3.7a.43.43,0,0,0,.44-.44v-.5a.43.43,0,0,0-.44-.44h-3.7V81.41h4.72a.43.43,0,0,0,.44-.44v-.51a.43.43,0,0,0-.44-.44h-5.86a.43.43,0,0,0-.44.44V92.2a.43.43,0,0,0,.44.44h6.11a.43.43,0,0,0,.44-.44V91.7A.43.43,0,0,0,131.69,91.25ZM144.74,80.5a5.9,5.9,0,0,0-3-.67c-3.22,0-5.23,2.5-5.23,6.51s2,6.49,5.23,6.49a5.67,5.67,0,0,0,3-.68,1,1,0,0,0,.52-.72V91a.38.38,0,0,0-.38-.42.65.65,0,0,0-.35.11,5.07,5.07,0,0,1-2.61.73c-2.42,0-3.8-1.85-3.8-5.09s1.39-5.11,3.8-5.11a5.08,5.08,0,0,1,2.61.73.6.6,0,0,0,.35.11.39.39,0,0,0,.38-.42v-.41A.94.94,0,0,0,144.74,80.5ZM158.93,80h-.66a.43.43,0,0,0-.44.44v7.67c0,1.2-.35,3.22-2.71,3.22s-2.75-2-2.75-3.22V80.47a.43.43,0,0,0-.44-.44h-.7a.43.43,0,0,0-.44.44V88.1c0,3,1.58,4.72,4.33,4.72s4.25-1.76,4.25-4.72V80.47A.43.43,0,0,0,158.93,80Zm15,11.78c-.15-.05-.24-.14-.41-.4l-2.1-3.21a4.28,4.28,0,0,0-.75-.94,3.45,3.45,0,0,0,2.65-3.53c0-2.38-1.38-3.69-3.88-3.69h-3.15a.43.43,0,0,0-.44.44V92.2a.43.43,0,0,0,.44.44h.7a.43.43,0,0,0,.44-.44V87.41h1.53c.25,0,.31.09.49.36l2.3,3.68c.65,1,.9,1.2,1.38,1.2h.78a.4.4,0,0,0,.42-.42C174.31,92,174.12,91.87,173.93,91.8ZM169,86.1h-1.56V81.34h1.66c1.85,0,2.63.71,2.63,2.38S170.87,86.1,169,86.1Zm17.18,5.16h-5V86.71h3.71a.43.43,0,0,0,.44-.44v-.5a.43.43,0,0,0-.44-.44h-3.71V81.41h4.72a.43.43,0,0,0,.44-.44v-.51a.43.43,0,0,0-.44-.44h-5.86a.43.43,0,0,0-.44.44V92.2a.43.43,0,0,0,.44.44h6.11a.43.43,0,0,0,.44-.44V91.7A.43.43,0,0,0,186.16,91.25ZM207.25,80h-.58a.55.55,0,0,0-.57.37l-2.3,4.24a15.93,15.93,0,0,0-.84,1.66c0,.12,0,.12,0,.12s0,0,0-.12a16.13,16.13,0,0,0-.84-1.66l-2.3-4.24a.55.55,0,0,0-.57-.37h-.58a.41.41,0,0,0-.44.42,1.89,1.89,0,0,0,.3.79l3.69,6.6V92.2a.43.43,0,0,0,.44.44h.7a.43.43,0,0,0,.44-.44V87.84l3.69-6.6a1.76,1.76,0,0,0,.3-.79A.41.41,0,0,0,207.25,80Zm9.9-.19c-3.37,0-5.46,2.5-5.46,6.51s2.09,6.49,5.46,6.49,5.46-2.49,5.46-6.49S220.52,79.83,217.15,79.83Zm0,11.6c-2.45,0-3.86-1.85-3.86-5.09s1.41-5.11,3.86-5.11S221,83.1,221,86.34,219.6,91.43,217.15,91.43ZM236.43,80h-.66a.43.43,0,0,0-.44.44v7.67c0,1.2-.35,3.22-2.71,3.22s-2.75-2-2.75-3.22V80.47a.43.43,0,0,0-.44-.44h-.7a.43.43,0,0,0-.44.44V88.1c0,3,1.58,4.72,4.33,4.72s4.25-1.76,4.25-4.72V80.47A.43.43,0,0,0,236.43,80Zm15,11.78c-.16-.05-.24-.13-.41-.4l-2.1-3.21a4.28,4.28,0,0,0-.75-.94,3.45,3.45,0,0,0,2.65-3.53c0-2.38-1.38-3.69-3.88-3.69h-3.15a.43.43,0,0,0-.44.44V92.2a.43.43,0,0,0,.44.44h.7a.43.43,0,0,0,.44-.44V87.41h1.53c.26,0,.31.09.49.36l2.3,3.68c.65,1,.9,1.2,1.38,1.2h.78a.4.4,0,0,0,.42-.42C251.81,92,251.62,91.87,251.43,91.8Zm-4.95-5.71h-1.56V81.34h1.66c1.85,0,2.63.71,2.63,2.38S248.38,86.1,246.49,86.1ZM267.71,80h-2.84a.43.43,0,0,0-.44.44V92.2a.43.43,0,0,0,.44.44h.7a.43.43,0,0,0,.44-.44V87.76h1.53c2.58,0,4.12-1.45,4.12-3.88S270.33,80,267.71,80Zm-.19,6.42H266V81.34h1.43c1.81,0,2.62.78,2.62,2.54S269.25,86.45,267.52,86.45Zm14.67-6.62c-3.37,0-5.46,2.5-5.46,6.51s2.09,6.49,5.46,6.49,5.46-2.49,5.46-6.49S285.55,79.83,282.18,79.83Zm0,11.6c-2.45,0-3.86-1.85-3.86-5.09s1.41-5.11,3.86-5.11S286,83.1,286,86.34,284.64,91.43,282.18,91.43ZM299.69,80h-8a.43.43,0,0,0-.44.44V81a.43.43,0,0,0,.44.44h3.2V92.2a.43.43,0,0,0,.44.44h.7a.43.43,0,0,0,.44-.44V81.41h3.2a.43.43,0,0,0,.44-.44v-.51A.43.43,0,0,0,299.69,80Zm12.2,11.23h-5V86.71h3.7a.43.43,0,0,0,.44-.44v-.5a.43.43,0,0,0-.44-.44h-3.7V81.41h4.72a.43.43,0,0,0,.44-.44v-.51a.43.43,0,0,0-.44-.44h-5.86a.43.43,0,0,0-.44.44V92.2a.43.43,0,0,0,.44.44h6.11a.43.43,0,0,0,.44-.44V91.7A.43.43,0,0,0,311.89,91.25ZM325.9,80h-.58a.43.43,0,0,0-.44.44v7.71c0,.63,0,1.26,0,1.53,0,.08,0,.09,0,.1a.32.32,0,0,1,0-.11c-.06-.17-.46-.86-.86-1.55l-4.59-7.78a.51.51,0,0,0-.47-.33h-.6a.43.43,0,0,0-.44.44V92.2a.43.43,0,0,0,.44.44h.58a.43.43,0,0,0,.44-.44V84.5c0-.64,0-1.26,0-1.53,0-.08,0-.09,0-.1a.35.35,0,0,1,0,.11,15.85,15.85,0,0,0,.77,1.4l4.68,7.94a.54.54,0,0,0,.47.33h.6a.43.43,0,0,0,.44-.44V80.47A.43.43,0,0,0,325.9,80ZM340,80h-8a.43.43,0,0,0-.44.44V81a.42.42,0,0,0,.44.44h3.2V92.2a.43.43,0,0,0,.44.44h.7a.43.43,0,0,0,.44-.44V81.41H340a.43.43,0,0,0,.44-.44v-.51A.43.43,0,0,0,340,80Zm6.79,0H346a.43.43,0,0,0-.44.44V92.2a.43.43,0,0,0,.44.44h.7a.43.43,0,0,0,.44-.44V80.47A.43.43,0,0,0,346.75,80Zm15.59,11.39-4.11-11c-.07-.2-.18-.4-.45-.4h-.47c-.27,0-.38.2-.46.4l-4.11,11-.06.17a2.14,2.14,0,0,0-.17.63.4.4,0,0,0,.42.42h.62a.48.48,0,0,0,.51-.38l1.19-3.34h4.57L361,92.26a.49.49,0,0,0,.51.38h.62a.4.4,0,0,0,.42-.42,2.13,2.13,0,0,0-.17-.63Zm-6.62-3.76L357,84l.19-.54a6.14,6.14,0,0,0,.3-.94c0-.09,0-.1,0-.1h0s0,0,0,.1a15,15,0,0,0,.49,1.48l1.31,3.64Zm18.48,3.6h-4.72V80.47A.43.43,0,0,0,369,80h-.7a.43.43,0,0,0-.44.44V92.2a.43.43,0,0,0,.44.44h5.86a.43.43,0,0,0,.44-.44V91.7A.43.43,0,0,0,374.2,91.25Z"/><path class="cls-2" d="M206.82,26.58a17.19,17.19,0,0,0-10.33,4.32V28.19a1.56,1.56,0,0,0-1.61-1.61h-2.54a1.56,1.56,0,0,0-1.61,1.61V65.61a1.56,1.56,0,0,0,1.61,1.61h2.54a1.56,1.56,0,0,0,1.61-1.61V35.81c3-2.46,6.18-3.89,8.38-3.89s3.13.85,4.4,1.69a1.7,1.7,0,0,0,1.1.34,1.25,1.25,0,0,0,1.36-1.36v-3C211.73,27.76,209.19,26.58,206.82,26.58ZM147,26.07c-6.94,0-11.52,3-13.12,3.39V28.19a1.56,1.56,0,0,0-1.61-1.61h-2.54a1.56,1.56,0,0,0-1.61,1.61V65.61a1.56,1.56,0,0,0,1.61,1.61h2.54a1.56,1.56,0,0,0,1.61-1.61V34.28a31.9,31.9,0,0,1,12.28-2.71c5,0,7.28,2.29,7.28,7v27a1.56,1.56,0,0,0,1.61,1.61h2.54a1.56,1.56,0,0,0,1.61-1.61V38.52C159.23,29,154.15,26.07,147,26.07Zm35.9,36a3.62,3.62,0,0,0-1.36.42,8.46,8.46,0,0,1-3.13.51,2.54,2.54,0,0,1-2.79-2.79v-29H182a1.56,1.56,0,0,0,1.61-1.61V28.19A1.56,1.56,0,0,0,182,26.58h-6.35V18.36a1.56,1.56,0,0,0-1.61-1.61h-2.54a1.56,1.56,0,0,0-1.61,1.61v8.21h-3.13a1.56,1.56,0,0,0-1.61,1.61v1.35a1.56,1.56,0,0,0,1.61,1.61h3.13V61.46c0,4.15,2.79,6.18,6.27,6.18a13.39,13.39,0,0,0,6.6-1.27,2.2,2.2,0,0,0,1.19-2.2v-1A1,1,0,0,0,182.94,62.05ZM116.39,26.58h-2.54a1.56,1.56,0,0,0-1.61,1.61V65.61a1.56,1.56,0,0,0,1.61,1.61h2.54A1.56,1.56,0,0,0,118,65.61V28.19A1.56,1.56,0,0,0,116.39,26.58Zm-1.27-14.05a3.64,3.64,0,1,0,3.64,3.64A3.61,3.61,0,0,0,115.12,12.52Zm105.17,0a3.64,3.64,0,1,0,3.64,3.64A3.61,3.61,0,0,0,220.29,12.52Zm31.92,13.55c-6.94,0-11.52,3-13.12,3.39V28.19a1.56,1.56,0,0,0-1.61-1.61h-2.54a1.56,1.56,0,0,0-1.61,1.61V65.61a1.56,1.56,0,0,0,1.61,1.61h2.54a1.56,1.56,0,0,0,1.61-1.61V34.28a31.9,31.9,0,0,1,12.28-2.71c5,0,7.28,2.29,7.28,7v27a1.56,1.56,0,0,0,1.61,1.61h2.54a1.56,1.56,0,0,0,1.61-1.61V38.52C264.4,29,259.32,26.07,252.21,26.07Zm-30.65.51H219a1.56,1.56,0,0,0-1.61,1.61V65.61A1.56,1.56,0,0,0,219,67.22h2.54a1.56,1.56,0,0,0,1.61-1.61V28.19A1.56,1.56,0,0,0,221.56,26.58ZM285,43.51c-4.83-1.1-7.11-3.64-7.11-6.86,0-4.4,2.71-6.27,7.11-6.27,5.25,0,7,2.46,8.72,3.47a2,2,0,0,0,1.19.42c.93,0,1.27-.51,1.27-1.35V31c0-1.1-.51-1.86-1.95-2.71-1.69-1-4.32-2.54-9.74-2.54-6.6,0-12,4.32-12,11.43s5.84,10.33,11,11.52c6.35,1.44,8.38,3.73,8.38,7.87,0,5-3.81,6.69-7.37,6.69a19.35,19.35,0,0,1-10.58-3.39,2.12,2.12,0,0,0-1.18-.34,1.18,1.18,0,0,0-1.27,1.35v1.95c0,1,.76,1.86,1.95,2.63a22.34,22.34,0,0,0,11,2.54c7.11,0,13.12-4.23,13.12-12.11S292,45.12,285,43.51Zm77.14-12.79a21.07,21.07,0,0,1,10,2.79,2.52,2.52,0,0,0,1.27.42c.76,0,1.19-.51,1.19-1.36V31.06c0-1-.68-1.95-1.95-2.79-1.61-1.1-5.84-2.54-11.09-2.54-11,0-18.46,8-18.46,21.17s7.45,21.17,18.46,21.17c5.25,0,9.57-1.52,11.09-2.54,1.27-.85,1.95-1.78,1.95-2.79V61.21c0-.85-.42-1.35-1.19-1.35a2.81,2.81,0,0,0-1.27.42,21.07,21.07,0,0,1-10,2.79c-8.13,0-13.29-5.59-13.29-16.17S354,30.73,362.12,30.73ZM313.76,43a1.44,1.44,0,0,0-1.44,1.44V46a1.44,1.44,0,0,0,1.44,1.44h22.45a26.9,26.9,0,0,0,.59-5.67c0-10.16-5.5-16.09-15.5-16.09-11.6,0-17.87,8.81-17.87,21.17s6,21.17,18.71,21.17a22,22,0,0,0,12.79-3.64,2.73,2.73,0,0,0,1.61-2.62V60.53c0-.85-.42-1.35-1.19-1.35a2.81,2.81,0,0,0-1.27.42,21,21,0,0,1-10.92,3.47c-5.74,0-9.77-2.3-12-6.42a13,13,0,0,1-1.45-4l-.06-.28c0-.23-.08-.46-.12-.7a24.48,24.48,0,0,1-.35-4.19c0-.3,0-.59,0-.9a28.58,28.58,0,0,1,.31-3.59c1-7,4.06-12.36,12-12.36,5.33,0,9.57,3.64,9.57,9.57A16.48,16.48,0,0,1,331,43Z"/><path class="cls-2" d="M385,26.84h-1.5V32a.19.19,0,0,1-.19.19h-.9a.19.19,0,0,1-.19-.19V26.84h-1.5a.19.19,0,0,1-.19-.19v-.73a.19.19,0,0,1,.19-.19H385a.19.19,0,0,1,.19.19v.73A.19.19,0,0,1,385,26.84Z"/><path class="cls-2" d="M388.34,30.53l-1-1.9a3.43,3.43,0,0,1-.26-.68c0-.08,0-.09-.05-.09s0,0,0,.09a5.12,5.12,0,0,1,0,.68V32a.19.19,0,0,1-.19.19h-.83a.19.19,0,0,1-.19-.19v-6.1a.19.19,0,0,1,.19-.19h.88a.22.22,0,0,1,.2.15l1.27,2.62a2.63,2.63,0,0,1,.26.64c0,.05,0,.07,0,.07s0,0,0-.07a2.59,2.59,0,0,1,.26-.64l1.27-2.62a.21.21,0,0,1,.2-.15h.88a.19.19,0,0,1,.19.19V32a.19.19,0,0,1-.19.19h-.83a.19.19,0,0,1-.19-.19V28.63a5,5,0,0,1,0-.68c0-.07,0-.09,0-.09s0,0-.05.09a3.2,3.2,0,0,1-.26.68l-1,1.9c-.06.12-.1.17-.21.17h-.32C388.44,30.7,388.4,30.65,388.34,30.53Z"/><path class="cls-3" d="M82.3,61.5,70.19,73.6a1.44,1.44,0,0,1-2-2L80.26,59.46a19.27,19.27,0,0,0-.13-27.38l-7.46-7.33a19.3,19.3,0,0,0-27.26,0l-12,12a1.44,1.44,0,0,1-2-2l12-12a22.17,22.17,0,0,1,31.32,0L82.15,30A22.15,22.15,0,0,1,82.3,61.5Z"/><path class="cls-3" d="M47.84,51.28,37.65,61.47a10.38,10.38,0,0,1-14.67,0L17.2,55.69A10.38,10.38,0,0,1,17.2,41L39.66,18.56a1.44,1.44,0,0,1,2,2h0L19.23,43.05a7.5,7.5,0,0,0,0,10.6L25,59.44a7.5,7.5,0,0,0,10.6,0L45.81,49.25a1.44,1.44,0,0,1,2,2Z"/><path class="cls-3" d="M57.38,60.82l-12,12a22.17,22.17,0,0,1-31.32,0L6.63,65.47A22.15,22.15,0,0,1,6.49,34l12-12a1.44,1.44,0,0,1,2,2l-12,12a19.27,19.27,0,0,0,.13,27.38l7.46,7.33a19.3,19.3,0,0,0,27.26,0l12-12a1.44,1.44,0,1,1,2,2Z"/><path class="cls-1" d="M44.3,0a7.4,7.4,0,0,0-6.45,11L10.55,38.32a15.92,15.92,0,0,0,0,22.48l8,8a15.92,15.92,0,0,0,22.48,0L55.38,54.45a7.44,7.44,0,1,0-2.78-2.64L38.32,66.08a12.08,12.08,0,0,1-17.06,0l-8-8a12.08,12.08,0,0,1,0-17.06L40.52,13.77A7.4,7.4,0,0,0,51.7,7.4h0A7.4,7.4,0,0,0,44.3,0Zm11,47.93a3.57,3.57,0,1,1,7.14,0A3.66,3.66,0,0,1,58.9,51.5a3.57,3.57,0,0,1-3.57-3.57ZM47.86,7.4A3.66,3.66,0,0,1,44.29,11,3.57,3.57,0,1,1,47.86,7.4ZM47.56,27,33.21,41.35a7.4,7.4,0,0,0-10.92,6.51h0A7.41,7.41,0,1,0,36,44L50.27,29.71a12.08,12.08,0,0,1,17.06,0l8,8a12.08,12.08,0,0,1,0,17.06L48.06,82a7.41,7.41,0,1,0,2.68,2.74L78,57.48A15.92,15.92,0,0,0,78,35l-8-8A15.92,15.92,0,0,0,47.56,27ZM33.26,47.86a3.57,3.57,0,1,1-3.57-3.57A3.58,3.58,0,0,1,33.26,47.86Zm14.6,40.53A3.66,3.66,0,0,1,44.29,92a3.57,3.57,0,1,1,3.57-3.57Z"/><path class="cls-3" d="M71.57,54.6,48.73,77.44a1.44,1.44,0,0,1-2-2L69.53,52.57a7.5,7.5,0,0,0,0-10.6l-5.79-5.79a7.5,7.5,0,0,0-10.6,0L43,46.38a1.44,1.44,0,0,1-2-2L51.12,34.15a10.38,10.38,0,0,1,14.67,0l5.79,5.79A10.38,10.38,0,0,1,71.57,54.6Z"/></svg>